<?xml version="1.0" encoding="utf-8"?>
<!-- Svg Vector Icons : http://www.onlinewebfonts.com/icon -->
<!DOCTYPE svg PUBLIC "-//W3C//DTD SVG 1.1//EN" "http://www.w3.org/Graphics/SVG/1.1/DTD/svg11.dtd">
<svg version="1.1" xmlns="http://www.w3.org/2000/svg" xmlns:xlink="http://www.w3.org/1999/xlink" x="0px" y="0px" viewBox="0 0 1000 1000" enable-background="new 0 0 1000 1000" xml:space="preserve" fill="#ffbf00">
<metadata> Svg Vector Icons : http://www.onlinewebfonts.com/icon </metadata>
<g><g transform="translate(0.000000,196.000000) scale(0.100000,-0.100000)"><path d="M3863-258.3L2651.7-1303.9H1550.9c-1219.2,0-1325.8-15.8-1412.6-224.9c-35.5-82.8-43.4-497.1-35.5-1566.5l11.8-1452l110.5-94.7l110.5-94.7H1468h1132.4l828.6-714.2c457.7-394.6,1010.1-876,1235-1065.3c331.5-288.1,426.1-351.2,532.7-351.2c173.6,0,292,90.7,343.3,268.3c55.2,201.3,55.2,6916.8,0,7118.1c-51.3,177.6-169.7,268.3-343.3,268.3C5086.2,787.3,4904.7,645.3,3863-258.3z"/><path d="M8152.1,669c-47.4-43.4-98.6-130.2-110.5-185.5c-31.6-118.4-3.9-169.7,331.5-666.8c378.8-560.3,682.6-1310,801-1988.6c75-434,67.1-1400.7-19.7-1830.8c-161.8-820.7-493.2-1578.3-958.8-2189.9c-272.3-359-63.1-781.2,315.7-639.2c224.9,86.8,781.2,986.4,1049.5,1700.6c276.2,737.9,339.4,1120.6,339.4,2071.5c0,726-11.8,879.9-90.7,1242.9C9647.5-1094.8,9383.1-463.5,8984.6,156c-303.8,473.5-426.1,591.9-603.7,591.9C8290.2,747.9,8207.3,716.3,8152.1,669z"/><path d="M7295.8-207c-224.9-130.2-236.7-359-43.4-635.2c221-307.8,453.8-828.6,564.3-1242.9c130.2-497.2,146-1313.9,35.5-1803.2C7737.8-4389.4,7461.6-5005,7189.3-5364c-232.8-307.8,153.9-718.1,469.6-497.1c106.5,75,402.4,548.5,556.3,887.8c153.9,335.4,307.8,852.3,366.9,1231.1c55.3,374.8,27.6,1329.7-55.2,1692.7c-134.2,576.1-512.9,1392.8-797,1716.4C7599.7-183.3,7418.1-132,7295.8-207z"/><path d="M6218.7-1264.4c-157.8-146-150-256.5,23.7-607.6c213.1-426.1,288-737.9,288-1183.7c0-461.6-47.4-655-268.3-1136.4c-165.7-366.9-169.7-386.7-118.4-512.9c71-165.7,248.6-252.5,410.4-201.2c228.8,75,552.4,761.5,647.1,1365.2c118.4,749.7-110.5,1771.6-497.1,2233.3C6573.8-1157.9,6356.8-1138.2,6218.7-1264.4z"/></g></g>
</svg>