<?xml version="1.0" encoding="utf-8"?>
<!-- Svg Vector Icons : http://www.onlinewebfonts.com/icon -->
<!DOCTYPE svg PUBLIC "-//W3C//DTD SVG 1.1//EN" "http://www.w3.org/Graphics/SVG/1.1/DTD/svg11.dtd">
<svg version="1.1" xmlns="http://www.w3.org/2000/svg" xmlns:xlink="http://www.w3.org/1999/xlink" x="0px" y="0px" viewBox="0 0 1000 1000" enable-background="new 0 0 1000 1000" xml:space="preserve" fill="#ffbf00">
<metadata> Svg Vector Icons : http://www.onlinewebfonts.com/icon </metadata>
<g><g transform="translate(0.000000,379.000000) scale(0.100000,-0.100000)"><path d="M4764.4,2405.6c-63.5-19.2-402-275.1-1248.3-940.6L2352.4,551.4l-827.1-5.8l-829-5.8l-128.9-61.6C386.6,393.6,259.6,268.6,171.2,89.7L100-54.5v-1165.6v-1163.7l63.5-130.8c119.3-242.4,348.1-413.5,611.7-455.9c63.5-11.6,446.2-19.2,850.2-19.2h738.6l1136.8-894.4c627-492.4,1169.5-909.8,1206-927.1c101.9-51.9,350.1-46.2,453.9,7.7c103.9,55.8,213.5,178.9,238.5,271.2c13.5,53.8,17.3,1081,15.4,3352.6l-5.8,3277.6l-42.3,76.9c-21.2,42.3-61.6,96.2-86.6,117.3C5152.9,2409.4,4925.9,2459.4,4764.4,2405.6z"/><path d="M6801.3,445.6c-115.4-40.4-184.7-103.9-240.4-215.4c-42.3-86.6-50-121.2-40.4-200c5.8-51.9,23.1-117.3,38.5-144.3c13.5-28.8,263.5-288.5,552-579l527-527l-521.3-525.1c-567.4-571.3-575.1-580.9-559.7-782.9c11.5-150,76.9-248.1,209.6-315.5c117.3-57.7,232.7-65.4,340.4-21.1c46.2,21.1,246.2,205.8,580.9,538.6c280.8,280.8,519.3,509.7,529,509.7c11.5,0,244.3-227,519.3-502c323.1-325,527-515.5,577.1-538.6c257.7-119.2,567.4,80.8,567.4,367.4c0,153.9-23.1,182.7-569.3,730.9l-527.1,529l521.3,519.3c286.6,286.6,536.7,552,557.8,590.5c50,96.2,48.1,261.6-1.9,359.7c-102,202-346.2,280.8-548.2,180.8c-30.8-17.3-294.3-263.5-580.9-550.1l-525.1-521.3l-542.4,538.6c-498.2,496.2-552,542.4-634.7,563.6C6918.6,478.3,6887.9,476.4,6801.3,445.6z"/></g></g>
</svg>